<svg width="30" height="30" viewBox="0 0 30 30" fill="none" xmlns="http://www.w3.org/2000/svg">
<path d="M18.3813 15L28.6934 4.71195C29.145 4.26037 29.3987 3.64789 29.3987 3.00926C29.3987 2.37063 29.145 1.75816 28.6934 1.30658C28.2418 0.854996 27.6293 0.6013 26.9907 0.6013C26.3521 0.6013 25.7396 0.854996 25.288 1.30658L15 11.6186L4.71191 1.30658C4.26033 0.854996 3.64785 0.6013 3.00922 0.6013C2.37059 0.6013 1.75812 0.854996 1.30654 1.30658C0.854956 1.75816 0.601261 2.37063 0.601261 3.00926C0.601261 3.64789 0.854956 4.26037 1.30654 4.71195L11.6186 15L1.30654 25.2881C1.08176 25.511 0.903354 25.7762 0.781603 26.0685C0.659852 26.3607 0.597168 26.6742 0.597168 26.9907C0.597168 27.3073 0.659852 27.6208 0.781603 27.913C0.903354 28.2052 1.08176 28.4705 1.30654 28.6934C1.52948 28.9182 1.79471 29.0966 2.08695 29.2184C2.37919 29.3401 2.69264 29.4028 3.00922 29.4028C3.32581 29.4028 3.63926 29.3401 3.93149 29.2184C4.22373 29.0966 4.48897 28.9182 4.71191 28.6934L15 18.3814L25.288 28.6934C25.511 28.9182 25.7762 29.0966 26.0684 29.2184C26.3607 29.3401 26.6741 29.4028 26.9907 29.4028C27.3073 29.4028 27.6207 29.3401 27.913 29.2184C28.2052 29.0966 28.4704 28.9182 28.6934 28.6934C28.9182 28.4705 29.0966 28.2052 29.2183 27.913C29.3401 27.6208 29.4028 27.3073 29.4028 26.9907C29.4028 26.6742 29.3401 26.3607 29.2183 26.0685C29.0966 25.7762 28.9182 25.511 28.6934 25.2881L18.3813 15Z" fill="white"/>
</svg>
