<svg width="24" height="24" viewBox="0 0 24 24" fill="none" xmlns="http://www.w3.org/2000/svg">
<path d="M20.2609 19.29L16.9951 15.9C18.0488 14.5025 18.6205 12.7767 18.6184 11C18.6184 9.41775 18.1678 7.87103 17.3234 6.55544C16.479 5.23985 15.2789 4.21447 13.8748 3.60897C12.4707 3.00347 10.9257 2.84504 9.4351 3.15372C7.94451 3.4624 6.57531 4.22433 5.50066 5.34315C4.426 6.46197 3.69415 7.88743 3.39765 9.43928C3.10116 10.9911 3.25333 12.5997 3.83493 14.0615C4.41653 15.5233 5.40143 16.7727 6.6651 17.6518C7.92876 18.5308 9.41442 19 10.9342 19C12.6407 19.0022 14.2984 18.407 15.6408 17.31L18.897 20.71C18.9863 20.8037 19.0925 20.8781 19.2096 20.9289C19.3266 20.9797 19.4522 21.0058 19.579 21.0058C19.7058 21.0058 19.8313 20.9797 19.9483 20.9289C20.0654 20.8781 20.1716 20.8037 20.2609 20.71C20.351 20.617 20.4224 20.5064 20.4712 20.3846C20.5199 20.2627 20.545 20.132 20.545 20C20.545 19.868 20.5199 19.7373 20.4712 19.6154C20.4224 19.4936 20.351 19.383 20.2609 19.29ZM5.17106 11C5.17106 9.81332 5.50906 8.65328 6.14232 7.66658C6.77559 6.67989 7.67567 5.91085 8.72875 5.45673C9.78183 5.0026 10.9406 4.88378 12.0586 5.11529C13.1765 5.3468 14.2034 5.91825 15.0094 6.75736C15.8154 7.59648 16.3643 8.66558 16.5866 9.82946C16.809 10.9933 16.6949 12.1997 16.2587 13.2961C15.8225 14.3925 15.0838 15.3295 14.1361 15.9888C13.1883 16.6481 12.0741 17 10.9342 17C9.40573 17 7.93985 16.3679 6.85905 15.2426C5.77824 14.1174 5.17106 12.5913 5.17106 11Z" fill="#797979"/>
</svg>
